<svg width="32" height="32" viewBox="0 0 32 32" fill="none" xmlns="http://www.w3.org/2000/svg">
<circle cx="16" cy="16" r="14" fill="#EFEFEF"/>
<path fill-rule="evenodd" clip-rule="evenodd" d="M10.4588 10.4588C10.7815 10.1362 11.3046 10.1362 11.6272 10.4588L16 14.8316L20.3728 10.4588C20.6954 10.1362 21.2185 10.1362 21.5412 10.4588C21.8638 10.7815 21.8638 11.3046 21.5412 11.6272L17.1684 16L21.5412 20.3728C21.8638 20.6954 21.8638 21.2185 21.5412 21.5412C21.2185 21.8638 20.6954 21.8638 20.3728 21.5412L16 17.1684L11.6272 21.5412C11.3046 21.8638 10.7815 21.8638 10.4588 21.5412C10.1362 21.2185 10.1362 20.6954 10.4588 20.3728L14.8316 16L10.4588 11.6272C10.1362 11.3046 10.1362 10.7815 10.4588 10.4588Z" fill="#1F2A37"/>
<path fill-rule="evenodd" clip-rule="evenodd" d="M10.3055 10.3055C10.7128 9.89817 11.3732 9.89817 11.7806 10.3055L16 14.5249L20.2194 10.3055C20.6268 9.89817 21.2872 9.89817 21.6945 10.3055C22.1018 10.7128 22.1018 11.3732 21.6945 11.7806L17.4751 16L21.6945 20.2194C22.1018 20.6268 22.1018 21.2872 21.6945 21.6945C21.2872 22.1018 20.6268 22.1018 20.2194 21.6945L16 17.4751L11.7806 21.6945C11.3732 22.1018 10.7128 22.1018 10.3055 21.6945C9.89817 21.2872 9.89817 20.6268 10.3055 20.2194L14.5249 16L10.3055 11.7806C9.89817 11.3732 9.89817 10.7128 10.3055 10.3055ZM11.4739 10.6122C11.2359 10.3742 10.8501 10.3742 10.6122 10.6122C10.3742 10.8501 10.3742 11.2359 10.6122 11.4739L14.985 15.8467C15.0257 15.8873 15.0485 15.9425 15.0485 16C15.0485 16.0575 15.0257 16.1127 14.985 16.1533L10.6122 20.5261C10.3742 20.7641 10.3742 21.1499 10.6122 21.3878C10.8501 21.6258 11.2359 21.6258 11.4739 21.3878L15.8467 17.015C15.8873 16.9743 15.9425 16.9515 16 16.9515C16.0575 16.9515 16.1127 16.9743 16.1533 17.015L20.5261 21.3878C20.7641 21.6258 21.1499 21.6258 21.3878 21.3878C21.6258 21.1499 21.6258 20.7641 21.3878 20.5261L17.015 16.1533C16.9743 16.1127 16.9515 16.0575 16.9515 16C16.9515 15.9425 16.9743 15.8873 17.015 15.8467L21.3878 11.4739C21.6258 11.2359 21.6258 10.8501 21.3878 10.6122C21.1499 10.3742 20.7641 10.3742 20.5261 10.6122L16.1533 14.985C16.1127 15.0257 16.0575 15.0485 16 15.0485C15.9425 15.0485 15.8873 15.0257 15.8467 14.985L11.4739 10.6122Z" fill="#1F2A37"/>
</svg>
